<svg width="518" height="519" viewBox="0 0 518 519" fill="none" xmlns="http://www.w3.org/2000/svg">
<rect width="518" height="518" transform="translate(0 0.549988)" fill="white"/>
<path d="M199.059 59.4639C195.823 60.4109 191.168 62.2259 188.879 63.4096C183.119 66.4083 176.017 73.2738 173.255 78.561C171.677 81.6386 170.572 82.8223 169.388 82.8223C168.52 82.8223 165.68 83.5326 163.154 84.4006C152.817 87.9517 146.346 96.0009 143.506 108.864C142.48 113.599 142.243 118.176 142.401 131.512L142.638 148.242L139.955 148.715C136.404 149.346 132.379 153.45 131.274 157.396C128.355 168.049 132.932 179.728 144.689 191.644C150.529 197.484 150.687 197.878 151.239 202.376C152.659 214.45 158.42 228.497 166.153 238.756L170.414 244.358L163.786 244.911C138.455 246.963 126.066 258.721 127.566 279.238C127.802 282.947 128.276 287.13 128.513 288.471C128.907 290.681 128.749 290.996 126.698 291.47C122.673 292.496 111.626 298.02 104.997 302.439C81.324 317.827 65.3052 340.791 58.5977 368.805C57.2563 374.171 57.0195 378.117 57.0195 393.9V412.681H187.064H317.03L318.372 416.469C320.344 421.914 326.184 431.384 330.761 436.671C339.599 446.614 350.962 454.426 362.956 458.688C369.664 461.134 370.453 461.213 384.893 461.45C401.465 461.765 405.095 461.292 414.485 457.425C424.822 453.164 430.977 449.06 439.342 440.695C448.653 431.384 453.625 423.571 457.728 411.734C460.411 403.922 460.569 403.054 460.884 390.427C461.121 380.169 460.963 375.986 459.937 371.488C453.625 343.237 431.135 321.299 402.412 315.223C396.257 313.881 380.238 313.723 375.187 314.828C371.794 315.617 371.715 315.617 367.691 311.987C358.695 303.859 344.333 295.573 333.759 292.259C329.814 290.996 329.261 290.602 329.577 289.181C329.893 288.313 330.287 284.368 330.524 280.501C331.155 271.82 329.735 265.981 325.631 259.826C319.476 250.829 307.561 245.463 293.436 245.384H288.07L290.437 242.622C299.986 231.811 306.772 216.897 308.745 202.692L309.692 196.142L316.636 188.803C326.105 178.939 329.656 171.995 329.577 163.393C329.577 154.16 326.499 149.346 319.634 147.453C316.083 146.506 316.083 146.9 317.898 132.143C320.266 112.652 317.109 99.1574 308.192 90.3191C306.298 88.5041 303.536 86.3734 302.116 85.5843L299.354 84.0849L300.854 82.0332C305.036 76.1936 306.851 66.0137 304.72 60.0163L303.852 57.57L299.986 60.4109C295.409 63.7252 289.964 65.9348 284.598 66.645C281.442 67.1185 279.311 66.724 273.314 64.6722C257.453 59.4639 244.117 57.57 221.943 57.6489C206.634 57.6489 204.425 57.8067 199.059 59.4639ZM235.358 66.2505C246.958 67.3553 257.532 69.2492 265.344 71.6166C281.126 76.2725 282.625 76.4303 289.648 74.6153C291.937 74.0629 293.752 73.9051 293.752 74.2207C293.752 74.6153 290.911 78.2453 287.439 82.3488L281.205 89.7667L287.36 90.3191C297.697 91.2661 304.168 96.2376 307.403 105.865C309.613 112.257 309.849 118.886 308.35 132.854L306.93 145.874L301.485 148.005L296.119 150.136L294.304 148.478C291.621 145.953 288.859 145.243 280.495 144.691C271.183 144.059 250.43 145.559 244.669 147.216C241.671 148.163 239.54 149.504 237.173 151.951C234.095 155.107 233.464 155.423 230.071 155.423C226.677 155.423 226.046 155.107 224.073 152.661C219.339 146.742 211.527 145.006 189.589 144.927C175.464 144.848 171.203 145.638 166.942 148.794L164.417 150.688L159.051 148.636C156.131 147.453 153.291 146.19 152.817 145.874C151.633 144.927 150.765 120.938 151.712 113.756C152.107 110.6 153.212 106.339 154.08 104.287C157.552 96.3955 165.285 91.5028 174.281 91.5028C177.043 91.5028 178.7 91.1872 178.858 90.4769C179.015 90.0035 179.568 88.0306 180.041 86.2156C182.961 75.6412 196.691 67.1185 213.42 65.5403C220.365 64.9089 222.101 64.9879 235.358 66.2505ZM206.634 153.845C213.973 154.792 216.182 155.896 217.208 158.974C217.918 161.105 217.682 162.288 215.63 167.181C209.475 182.175 207.344 183.99 194.482 184.463C177.674 185.173 173.965 183.516 171.913 174.52C168.836 160.789 169.625 155.423 174.833 153.923C178.147 152.977 199.453 152.898 206.634 153.845ZM286.255 155.265C290.122 156.37 290.99 159.211 289.885 166.786C287.36 183.753 286.886 184.226 269.684 184.226C258.952 184.226 257.532 184.068 254.217 182.411C250.745 180.754 250.351 180.123 246.484 171.916C241.592 161.42 241.434 159.053 245.695 156.843C247.273 156.054 251.613 155.107 255.559 154.713C263.45 153.845 282.625 154.239 286.255 155.265ZM156.684 157.79C160.156 159.369 160.393 159.605 160.393 162.446C160.393 165.918 162.444 178.071 163.707 182.411C164.89 186.357 168.52 190.618 172.466 192.591C177.2 195.037 189.984 196.221 198.822 195.037C206.082 194.091 212.474 191.486 215.472 188.33C217.287 186.436 226.125 169.548 226.914 166.629C227.23 165.208 227.861 164.892 230.465 164.892H233.622L238.435 174.678C241.039 180.123 244.275 185.726 245.616 187.304C251.14 193.617 264.002 196.774 277.259 195.116C294.067 192.986 299.196 186.594 300.617 165.918L301.09 159.369L305.273 157.79C308.587 156.607 310.56 156.37 314.584 156.764C317.425 157.001 320.187 157.711 320.66 158.264C322.317 160.237 321.607 167.733 319.398 172.153C316.793 177.361 309.928 185.726 305.273 189.356C301.879 192.039 301.722 192.354 301.327 197.247C298.802 224.157 282.231 247.278 256.111 260.378C235.121 270.873 213.657 268.19 192.825 252.487C175.859 239.703 165.443 222.499 162.523 202.298L161.497 195.037L153.054 186.909C146.504 180.438 144.216 177.598 142.322 173.573C138.455 165.445 139.087 157.79 143.663 157.79C144.847 157.711 146.662 157.238 147.767 156.607C149.976 155.265 151.476 155.502 156.684 157.79ZM172.781 254.538L175.149 255.012L175.622 263.771C176.254 274.898 178.384 283.263 182.803 292.338C187.064 301.018 193.93 308.752 200.874 312.934C203.557 314.592 205.924 315.933 206.003 316.091C206.161 316.17 204.819 317.59 203.083 319.247C201.268 320.826 198.506 324.219 196.928 326.744C195.35 329.348 193.772 331.4 193.298 331.4C191.168 331.4 175.149 325.403 170.651 322.956C158.972 316.485 145.794 304.57 141.296 296.205C138.613 291.154 136.404 280.343 136.956 274.819C138.14 263.219 146.662 256.432 161.971 254.854C169.467 254.065 170.256 253.986 172.781 254.538ZM306.141 256.748C315.847 259.826 321.37 267.243 321.37 277.344C321.37 289.655 317.188 298.493 306.377 309.383C297.776 317.985 288.228 324.061 275.76 328.717C269.289 331.163 268.342 331.084 267.001 328.086C265.58 324.85 260.451 319.326 256.979 317.117L254.296 315.46L257.768 313.171C263.213 309.541 270.946 300.782 274.182 294.705C279.074 285.394 282.704 269.769 282.704 258.089V254.696L292.41 255.091C298.092 255.327 303.694 255.959 306.141 256.748ZM193.93 265.113C209.712 275.056 226.599 278.37 242.46 274.582C250.035 272.767 261.714 267.48 268.658 262.666C271.262 260.93 273.55 259.668 273.787 259.904C274.576 260.694 272.367 274.661 270.552 280.501C265.186 297.309 253.902 307.726 237.33 311.277C229.913 312.855 226.52 312.777 219.102 310.883C209.948 308.515 204.898 305.753 198.98 299.914C190.852 291.786 185.881 279.712 184.381 264.087L183.829 258.484L185.723 259.826C186.749 260.536 190.457 262.903 193.93 265.113ZM137.43 307.647C148.161 322.562 168.52 335.583 189.432 340.87L192.746 341.738V351.207V360.598L190.615 361.466C185.013 363.518 180.12 370.857 180.12 377.17C180.12 391.453 198.191 399.108 209.08 389.559C217.997 381.747 216.261 367.227 205.766 362.176L202.215 360.44V349.629C202.215 333.452 204.425 328.086 212.631 323.982C216.577 322.009 217.129 321.93 231.649 321.93C248.062 321.93 251.061 322.483 255.48 326.034C259.978 329.822 261.635 333.846 262.029 342.211L262.345 349.471L259.741 350.576C256.032 352.075 251.377 357.521 250.351 361.545C248.062 369.989 252.955 378.985 261.319 381.826C268.421 384.193 276.707 381.037 280.731 374.487C285.939 365.964 282.388 354.364 273.472 350.576C270.946 349.55 270.867 349.392 270.867 344.973V340.396L276.628 338.581C288.543 334.793 300.222 328.322 308.745 320.747C314.584 315.617 321.765 307.331 323.895 303.149C325.631 299.914 325.868 299.756 328.472 300.229C334.548 301.334 351.041 310.33 358.695 316.722L360.983 318.537L355.775 320.984C336.363 330.059 321.607 347.262 315.373 368.253C313.558 374.171 313.243 376.775 313.164 386.245C313.164 392.321 313.4 398.635 313.716 400.213L314.347 403.211H189.511H64.6739L65.1473 392.321C65.3841 386.403 66.1732 378.669 66.8834 375.118C73.0384 343 95.2123 315.538 125.672 302.518C132.458 299.598 131.274 299.124 137.43 307.647ZM403.832 325.087C426.637 330.927 444.629 348.919 450.863 372.041C453.23 380.879 453.23 395.557 450.863 404.395C444.55 427.754 427.19 445.115 403.832 451.428C394.994 453.795 380.317 453.795 371.479 451.428C356.407 447.403 343.386 438.328 334.391 425.702C319.792 405.184 318.53 378.275 331.076 355.863C335.574 347.814 347.253 336.135 355.302 331.637C370.295 323.272 387.576 320.905 403.832 325.087ZM268.895 359.178C273.472 361.229 274.497 367.306 270.946 370.936C264.397 377.407 253.665 368.411 259.899 361.703C262.976 358.31 265.58 357.599 268.895 359.178ZM200.164 370.383C205.687 372.672 207.029 378.038 203.083 381.984C201.268 383.799 200.085 384.272 197.481 384.272C193.377 384.272 189.589 380.958 189.589 377.328C189.589 374.487 192.825 370.305 195.35 369.831C196.297 369.673 197.165 369.436 197.323 369.358C197.402 369.358 198.743 369.752 200.164 370.383Z" fill="black"/>
<path d="M383.157 386.64L365.639 422.151L369.664 424.202C371.794 425.307 373.767 426.018 374.004 425.781C374.477 425.386 408.961 355.863 408.961 355.39C408.961 355.074 401.386 351.129 400.912 351.129C400.754 351.129 392.784 367.148 383.157 386.64Z" fill="black"/>
<path d="M346.306 377.88L336.048 388.139L346.227 398.635C351.83 404.395 356.801 409.209 357.275 409.367C357.748 409.446 359.484 408.104 361.22 406.368L364.298 403.212L356.88 395.636L349.384 388.139L356.722 380.958L364.14 373.777L361.141 370.778C359.484 369.042 357.748 367.7 357.275 367.7C356.801 367.7 351.909 372.277 346.306 377.88Z" fill="black"/>
<path d="M414.091 370.936L410.934 374.092L418.273 381.274L425.69 388.455L418.352 395.794L410.934 403.211L414.327 406.526L417.641 409.919L428.531 399.029L439.342 388.139L428.689 377.959C422.85 372.356 417.878 367.779 417.641 367.7C417.405 367.7 415.748 369.121 414.091 370.936Z" fill="black"/>
</svg>
