<svg width="32" height="32" viewBox="0 0 32 32" fill="none" xmlns="http://www.w3.org/2000/svg">
<rect width="32" height="32" fill="#EFEFEF"/>
<g id="favicon">
<rect width="32" height="32" fill="#0C0E13"/>
<path id="Vector" d="M7.625 8.125C7.625 7.82663 7.74353 7.54048 7.9545 7.3295C8.16548 7.11853 8.45163 7 8.75 7H22.25C22.5484 7 22.8345 7.11853 23.0455 7.3295C23.2565 7.54048 23.375 7.82663 23.375 8.125V10.375C23.375 10.6734 23.2565 10.9595 23.0455 11.1705C22.8345 11.3815 22.5484 11.5 22.25 11.5C21.9516 11.5 21.6655 11.3815 21.4545 11.1705C21.2435 10.9595 21.125 10.6734 21.125 10.375V9.25H16.625V22.75H18.5C18.7984 22.75 19.0845 22.8685 19.2955 23.0795C19.5065 23.2905 19.625 23.5766 19.625 23.875C19.625 24.1734 19.5065 24.4595 19.2955 24.6705C19.0845 24.8815 18.7984 25 18.5 25H12.5C12.2016 25 11.9155 24.8815 11.7045 24.6705C11.4935 24.4595 11.375 24.1734 11.375 23.875C11.375 23.5766 11.4935 23.2905 11.7045 23.0795C11.9155 22.8685 12.2016 22.75 12.5 22.75H14.375V9.25H9.875V10.375C9.875 10.6734 9.75647 10.9595 9.5455 11.1705C9.33452 11.3815 9.04837 11.5 8.75 11.5C8.45163 11.5 8.16548 11.3815 7.9545 11.1705C7.74353 10.9595 7.625 10.6734 7.625 10.375V8.125Z" fill="#F5FCFF"/>
</g>
</svg>
