<svg width="40" height="41" viewBox="0 0 40 41" fill="none" xmlns="http://www.w3.org/2000/svg">
<g id="devicon:astro">
<path id="Vector" d="M25.4699 3.50773C25.7739 3.88492 25.9289 4.39398 26.2377 5.41086L33.0052 27.6409C30.4633 26.3216 27.7351 25.398 24.9145 24.9018L20.5089 10.0124C20.4741 9.8934 20.4017 9.78888 20.3024 9.71456C20.2032 9.64024 20.0825 9.60014 19.9585 9.60028C19.8345 9.60042 19.7138 9.64079 19.6148 9.71534C19.5157 9.78988 19.4434 9.89457 19.4089 10.0137L15.0561 24.8943C12.2233 25.3884 9.48286 26.3135 6.93018 27.6374L13.7296 5.40617C14.0408 4.39055 14.1958 3.88242 14.4996 3.50523C14.768 3.17322 15.1169 2.91528 15.513 2.75586C15.9608 2.57617 16.493 2.57617 17.5552 2.57617H22.4124C23.4755 2.57617 24.0077 2.57617 24.4571 2.75711C24.8534 2.9165 25.202 3.17495 25.4699 3.50773Z" fill="url(#paint0_linear_82_809)"/>
<path id="Vector_2" d="M26.2794 28.6978C25.1637 29.6525 22.9369 30.3031 20.3722 30.3031C17.2253 30.3031 14.5862 29.3228 13.8866 28.0044C13.6366 28.76 13.5803 29.6244 13.5803 30.1775C13.5803 30.1775 13.4156 32.8885 15.3016 34.7744C15.3016 34.5416 15.3474 34.3112 15.4365 34.0961C15.5256 33.8811 15.6561 33.6857 15.8207 33.5212C15.9853 33.3566 16.1807 33.2261 16.3958 33.137C16.6108 33.048 16.8413 33.0022 17.0741 33.0022C18.7522 33.0022 18.7512 34.4656 18.75 35.6547V35.7597C18.75 37.5638 19.8522 39.1094 21.4197 39.7613C21.1781 39.265 21.0528 38.7201 21.0534 38.1681C21.0534 36.4469 22.0628 35.8072 23.2372 35.0625C24.1712 34.4706 25.2087 33.8125 25.9228 32.4931C26.3082 31.7822 26.5096 30.9862 26.5087 30.1775C26.5092 29.6754 26.4318 29.1762 26.2794 28.6978Z" fill="#FF5D01"/>
<path id="Vector_3" d="M26.2794 28.6978C25.1637 29.6525 22.9369 30.3031 20.3722 30.3031C17.2253 30.3031 14.5862 29.3228 13.8866 28.0044C13.6366 28.76 13.5803 29.6244 13.5803 30.1775C13.5803 30.1775 13.4156 32.8885 15.3016 34.7744C15.3016 34.5416 15.3474 34.3112 15.4365 34.0961C15.5256 33.8811 15.6561 33.6857 15.8207 33.5212C15.9853 33.3566 16.1807 33.2261 16.3958 33.137C16.6108 33.048 16.8413 33.0022 17.0741 33.0022C18.7522 33.0022 18.7512 34.4656 18.75 35.6547V35.7597C18.75 37.5638 19.8522 39.1094 21.4197 39.7613C21.1781 39.265 21.0528 38.7201 21.0534 38.1681C21.0534 36.4469 22.0628 35.8072 23.2372 35.0625C24.1712 34.4706 25.2087 33.8125 25.9228 32.4931C26.3082 31.7822 26.5096 30.9862 26.5087 30.1775C26.5092 29.6754 26.4318 29.1762 26.2794 28.6978Z" fill="url(#paint1_linear_82_809)"/>
</g>
<defs>
<linearGradient id="paint0_linear_82_809" x1="27.5935" y1="1.3972" x2="19.9672" y2="27.6406" gradientUnits="userSpaceOnUse">
<stop stop-color="white"/>
<stop offset="1" stop-color="white"/>
</linearGradient>
<linearGradient id="paint1_linear_82_809" x1="31.3025" y1="20.9388" x2="24.6977" y2="34.7656" gradientUnits="userSpaceOnUse">
<stop stop-color="#FF1639"/>
<stop offset="1" stop-color="#FF1639" stop-opacity="0"/>
</linearGradient>
</defs>
</svg>
