<svg width="40" height="41" viewBox="0 0 40 41" fill="none" xmlns="http://www.w3.org/2000/svg">
<g id="vscode-icons:file-type-css">
<path id="Vector" d="M7.37732 34.5511L4.56982 3.0498H35.4298L32.6186 34.5461L19.9811 38.0498L7.37732 34.5511Z" fill="#1572B6"/>
<path id="Vector_2" d="M20 35.3722L30.2125 32.541L32.615 5.62598H20V35.3722Z" fill="#33A9DC"/>
<path id="Vector_3" d="M20 17.0388H25.1125L25.465 13.0825H20V9.21875H29.6875L29.595 10.255L28.6462 20.9025H20V17.0388Z" fill="white"/>
<path id="Vector_4" d="M20.0236 27.0722L20.0061 27.0772L15.7036 25.9147L15.4286 22.8335H11.5498L12.0911 28.8997L20.0048 31.0972L20.0236 31.0922V27.0722Z" fill="#EBEBEB"/>
<path id="Vector_5" d="M24.7835 20.7388L24.3185 25.9125L20.0098 27.075V31.095L27.9298 28.9L27.9885 28.2475L28.6598 20.7388H24.7835Z" fill="white"/>
<path id="Vector_6" d="M20.0137 9.21875V13.0825H10.6812L10.6037 12.2138L10.4275 10.255L10.335 9.21875H20.0137ZM20 17.0388V20.9025H15.7512L15.6737 20.0338L15.4987 18.075L15.4062 17.0388H20Z" fill="#EBEBEB"/>
</g>
</svg>
