<svg width="40" height="41" viewBox="0 0 40 41" fill="none" xmlns="http://www.w3.org/2000/svg">
<g id="devicon:figma" clip-path="url(#clip0_82_816)">
<path id="Vector" d="M14.2188 40.8623C17.9375 40.8623 20.9375 37.8623 20.9375 34.1436V27.4248H14.2188C10.5 27.4248 7.5 30.4248 7.5 34.1436C7.5 37.8623 10.5 40.8623 14.2188 40.8623Z" fill="#0ACF83"/>
<path id="Vector_2" d="M7.5 20.7061C7.5 16.9873 10.5 13.9873 14.2188 13.9873H20.9375V27.4248H14.2188C10.5 27.4248 7.5 24.4248 7.5 20.7061Z" fill="#A259FF"/>
<path id="Vector_3" d="M7.5 7.26855C7.5 3.5498 10.5 0.549805 14.2188 0.549805H20.9375V13.9873H14.2188C10.5 13.9873 7.5 10.9873 7.5 7.26855Z" fill="#F24E1E"/>
<path id="Vector_4" d="M20.9375 0.549805H27.6562C31.375 0.549805 34.375 3.5498 34.375 7.26855C34.375 10.9873 31.375 13.9873 27.6562 13.9873H20.9375V0.549805Z" fill="#FF7262"/>
<path id="Vector_5" d="M34.375 20.7061C34.375 24.4248 31.375 27.4248 27.6562 27.4248C23.9375 27.4248 20.9375 24.4248 20.9375 20.7061C20.9375 16.9873 23.9375 13.9873 27.6562 13.9873C31.375 13.9873 34.375 16.9873 34.375 20.7061Z" fill="#1ABCFE"/>
</g>
<defs>
<clipPath id="clip0_82_816">
<rect width="40" height="40" fill="white" transform="translate(0 0.549805)"/>
</clipPath>
</defs>
</svg>
