<svg width="40" height="41" viewBox="0 0 40 41" fill="none" xmlns="http://www.w3.org/2000/svg">
<g id="vscode-icons:file-type-html">
<path id="Vector" d="M7.3776 34.5511L4.56885 3.0498H35.4313L32.6188 34.5461L19.9813 38.0498L7.3776 34.5511Z" fill="#E44F26"/>
<path id="Vector_2" d="M20 35.3722L30.2125 32.541L32.615 5.62598H20V35.3722Z" fill="#F1662A"/>
<path id="Vector_3" d="M20 17.3088H14.8875L14.535 13.3525H20V9.48877H10.3125L10.405 10.5263L11.3538 21.1725H20V17.3088ZM20 27.3425L19.9825 27.3475L15.68 26.1863L15.405 23.105H11.5262L12.0675 29.17L19.9825 31.3675L20 31.3625V27.3425Z" fill="#EBEBEB"/>
<path id="Vector_4" d="M19.9863 17.3088V21.1725H24.7438L24.2963 26.1838L19.9863 27.3463V31.3663L27.9076 29.17L27.9651 28.5175L28.8726 18.3463L28.9676 17.3088H19.9863ZM19.9863 9.48877V13.3525H29.3188L29.3963 12.485L29.5726 10.5263L29.6651 9.48877H19.9863Z" fill="white"/>
</g>
</svg>
