<svg width="40" height="41" viewBox="0 0 40 41" fill="none" xmlns="http://www.w3.org/2000/svg">
<g id="vscode-icons:file-type-js-official">
<path id="Vector" d="M2.5 3.0498H37.5V38.0498H2.5V3.0498Z" fill="#F5DE19"/>
<path id="Vector_2" d="M26.0111 30.3938C26.3093 30.9995 26.7726 31.5087 27.3476 31.8625C27.9227 32.2164 28.586 32.4006 29.2611 32.3938C30.6236 32.3938 31.4948 31.7125 31.4948 30.7688C31.4948 29.6438 30.5998 29.2413 29.0998 28.585L28.2773 28.2325C25.9023 27.2213 24.3273 25.955 24.3273 23.2775C24.3273 20.8113 26.2023 18.9326 29.1436 18.9326C30.0957 18.8638 31.047 19.0769 31.8788 19.5453C32.7107 20.0136 33.3862 20.7165 33.8211 21.5663L31.2498 23.2101C31.0824 22.7887 30.7908 22.4282 30.4137 22.1764C30.0367 21.9246 29.592 21.7933 29.1386 21.8C28.9408 21.7802 28.741 21.8019 28.5521 21.8635C28.3631 21.9252 28.189 22.0255 28.041 22.1582C27.8929 22.2908 27.7741 22.4529 27.6921 22.634C27.6102 22.8151 27.5668 23.0113 27.5648 23.2101C27.5648 24.1963 28.1761 24.5963 29.5873 25.2101L30.4098 25.5626C33.2048 26.7613 34.7848 27.9825 34.7848 30.7288C34.7848 33.69 32.4586 35.3125 29.3348 35.3125C28.1177 35.3901 26.9042 35.1138 25.8406 34.5169C24.7771 33.92 23.909 33.0281 23.3411 31.9488L26.0111 30.3938ZM14.3923 30.6788C14.9086 31.5951 15.3786 32.37 16.5086 32.37C17.5886 32.37 18.2711 31.9475 18.2711 30.3038V19.12H21.5598V30.3475C21.5598 33.7525 19.5598 35.3025 16.6486 35.3025C15.6195 35.3588 14.5975 35.1023 13.717 34.5669C12.8364 34.0315 12.1384 33.2421 11.7148 32.3025L14.3923 30.6788Z" fill="black"/>
</g>
</svg>
