<svg width="40" height="41" viewBox="0 0 40 41" fill="none" xmlns="http://www.w3.org/2000/svg">
<g id="devicon:react">
<g id="Group">
<path id="Vector" d="M20 24.1123C21.9675 24.1123 23.5625 22.5173 23.5625 20.5498C23.5625 18.5823 21.9675 16.9873 20 16.9873C18.0325 16.9873 16.4375 18.5823 16.4375 20.5498C16.4375 22.5173 18.0325 24.1123 20 24.1123Z" fill="#61DAFB"/>
<path id="Vector_2" d="M33.5313 14.6748C32.8438 14.4248 32.125 14.1748 31.375 13.9561C31.5625 13.2061 31.7187 12.4561 31.8438 11.7373C32.5 7.6123 31.7813 4.70605 29.7813 3.58105C29.1875 3.2373 28.5313 3.08105 27.7812 3.08105C25.5938 3.08105 22.8125 4.70605 20 7.4248C17.1875 4.70605 14.4062 3.08105 12.2187 3.08105C11.4687 3.08105 10.8125 3.2373 10.2188 3.58105C8.21875 4.7373 7.5 7.64355 8.15625 11.7373C8.28125 12.4561 8.4375 13.2061 8.625 13.9561C7.875 14.1748 7.15625 14.3936 6.46875 14.6748C2.5625 16.1748 0.4375 18.2373 0.4375 20.5498C0.4375 22.8623 2.59375 24.9248 6.46875 26.4248C7.15625 26.6748 7.875 26.9248 8.625 27.1436C8.4375 27.8936 8.28125 28.6436 8.15625 29.3623C7.5 33.4873 8.21875 36.3936 10.2188 37.5186C10.8125 37.8623 11.4687 38.0186 12.2187 38.0186C14.4375 38.0186 17.2187 36.3936 20 33.6748C22.8125 36.3936 25.5938 38.0186 27.7812 38.0186C28.5313 38.0186 29.1875 37.8623 29.7813 37.5186C31.7813 36.3623 32.5 33.4561 31.8438 29.3623C31.7187 28.6436 31.5625 27.8936 31.375 27.1436C32.125 26.9248 32.8438 26.7061 33.5313 26.4248C37.4375 24.9248 39.5625 22.8623 39.5625 20.5498C39.5625 18.2373 37.4375 16.1748 33.5313 14.6748ZM28.9062 5.14355C30.1875 5.89355 30.625 8.20605 30.0938 11.4873C30 12.1436 29.8438 12.8311 29.6562 13.5498C28.0313 13.1748 26.3125 12.9248 24.5 12.7686C23.4375 11.2686 22.3437 9.9248 21.25 8.70605C23.5625 6.4248 25.9062 4.8623 27.8125 4.8623C28.2187 4.8623 28.5937 4.95605 28.9062 5.14355ZM25.4063 23.6748C24.8438 24.6748 24.1875 25.6748 23.5 26.6748C22.3437 26.7686 21.1875 26.7998 20 26.7998C18.7812 26.7998 17.625 26.7686 16.5 26.6748C15.8125 25.6748 15.1875 24.6748 14.625 23.6748C14.0312 22.6436 13.4687 21.5811 12.9687 20.5498C13.4687 19.5186 14.0312 18.4561 14.625 17.4248C15.1875 16.4248 15.8437 15.4248 16.5312 14.4248C17.6875 14.3311 18.8437 14.2998 20.0312 14.2998C21.25 14.2998 22.4063 14.3311 23.5313 14.4248C24.2188 15.4248 24.8438 16.4248 25.4063 17.4248C26 18.4561 26.5625 19.5186 27.0625 20.5498C26.5312 21.5811 26 22.6123 25.4063 23.6748ZM28 22.6436C28.4687 23.7373 28.8437 24.7998 29.1875 25.8623C28.125 26.1123 27 26.2998 25.8125 26.4561C26.1875 25.8623 26.5937 25.2373 26.9375 24.5811C27.3125 23.9248 27.6562 23.2686 28 22.6436ZM20 31.1123C19.25 30.2998 18.5312 29.4248 17.8437 28.5186C18.5625 28.5498 19.2812 28.5811 20 28.5811C20.7187 28.5811 21.4375 28.5498 22.1562 28.5186C21.4687 29.4248 20.75 30.2998 20 31.1123ZM14.1875 26.4248C13 26.2686 11.875 26.0811 10.8125 25.8311C11.1562 24.7998 11.5312 23.7061 12 22.6123C12.3438 23.2373 12.6875 23.8936 13.0625 24.5186C13.4375 25.2061 13.8125 25.7998 14.1875 26.4248ZM12 18.4561C11.5312 17.3623 11.1562 16.2998 10.8125 15.2373C11.875 14.9873 13 14.7998 14.1875 14.6436C13.8125 15.2373 13.4062 15.8623 13.0625 16.5186C12.6875 17.1748 12.3438 17.8311 12 18.4561ZM20 9.9873C20.75 10.7998 21.4687 11.6748 22.1562 12.5811C21.4375 12.5498 20.7187 12.5186 20 12.5186C19.2812 12.5186 18.5625 12.5498 17.8437 12.5811C18.5312 11.6748 19.25 10.7998 20 9.9873ZM26.9375 16.5498L25.8125 14.6748C27 14.8311 28.125 15.0186 29.1875 15.2686C28.8437 16.2998 28.4687 17.3936 28 18.4873C27.6562 17.8311 27.3125 17.1748 26.9375 16.5498ZM9.90625 11.4873C9.375 8.20605 9.8125 5.89355 11.0937 5.14355C11.4062 4.95605 11.7812 4.8623 12.1875 4.8623C14.0625 4.8623 16.4062 6.39355 18.75 8.70605C17.6562 9.89355 16.5625 11.2686 15.5 12.7686C13.6875 12.9248 11.9687 13.2061 10.3437 13.5498C10.1562 12.8311 10.0313 12.1436 9.90625 11.4873ZM2.1875 20.5498C2.1875 19.0811 3.96875 17.5186 7.09375 16.3623C7.71875 16.1123 8.40625 15.8936 9.09375 15.7061C9.59375 17.2686 10.2187 18.9248 10.9687 20.5811C10.2187 22.2373 9.5625 23.8623 9.09375 25.4248C4.78125 24.1748 2.1875 22.2998 2.1875 20.5498ZM11.0937 35.9561C9.8125 35.2061 9.375 32.8936 9.90625 29.6123C10 28.9561 10.1562 28.2686 10.3437 27.5498C11.9687 27.9248 13.6875 28.1748 15.5 28.3311C16.5625 29.8311 17.6562 31.1748 18.75 32.3936C16.4375 34.6748 14.0937 36.2373 12.1875 36.2373C11.7812 36.2373 11.4062 36.1436 11.0937 35.9561ZM30.0938 29.6123C30.625 32.8936 30.1875 35.2061 28.9062 35.9561C28.5937 36.1436 28.2187 36.2373 27.8125 36.2373C25.9375 36.2373 23.5937 34.7061 21.25 32.3936C22.3437 31.2061 23.4375 29.8311 24.5 28.3311C26.3125 28.1748 28.0313 27.8936 29.6562 27.5498C29.8438 28.2686 29.9688 28.9561 30.0938 29.6123ZM32.9063 24.7373C32.2813 24.9873 31.5938 25.2061 30.9062 25.3936C30.4062 23.8311 29.7813 22.1748 29.0312 20.5186C29.7813 18.8623 30.4375 17.2373 30.9062 15.6748C35.2188 16.9248 37.8125 18.7998 37.8125 20.5498C37.8125 22.0186 36 23.5811 32.9063 24.7373Z" fill="#61DAFB"/>
</g>
</g>
</svg>
