<svg width="40" height="41" viewBox="0 0 40 41" fill="none" xmlns="http://www.w3.org/2000/svg">
<g id="vscode-icons:file-type-scss2">
<path id="Vector" fill-rule="evenodd" clip-rule="evenodd" d="M20 3.0498C23.4612 3.0498 26.8446 4.07616 29.7225 5.99909C32.6003 7.92201 34.8434 10.6551 36.1679 13.8528C37.4924 17.0506 37.839 20.5692 37.1637 23.9639C36.4885 27.3586 34.8218 30.4768 32.3744 32.9242C29.9269 35.3716 26.8087 37.0383 23.4141 37.7135C20.0194 38.3888 16.5007 38.0422 13.303 36.7177C10.1053 35.3932 7.37221 33.1501 5.44928 30.2723C3.52636 27.3944 2.5 24.011 2.5 20.5498C2.5 15.9085 4.34374 11.4573 7.62563 8.17544C10.9075 4.89355 15.3587 3.0498 20 3.0498Z" fill="#CC6699"/>
<path id="Vector_2" d="M30.9775 10.5397C30.185 7.4322 25.0312 6.4147 20.1537 8.1422C17.0991 9.16863 14.2769 10.7874 11.8487 12.9059C9.1625 15.4184 8.73375 17.6059 8.91 18.5197C9.535 21.7447 13.9512 23.8522 15.7675 25.4159V25.4247C15.2325 25.6884 11.3125 27.6747 10.3925 29.6997C9.425 31.8397 10.5462 33.3747 11.29 33.5809C12.4066 33.8498 13.5794 33.7623 14.6438 33.3307C15.7082 32.8992 16.6108 32.1453 17.225 31.1747C17.7326 30.3883 18.0501 29.4946 18.1525 28.5643C18.2549 27.634 18.1394 26.6926 17.815 25.8147C18.6898 25.5924 19.5992 25.5402 20.4937 25.6609C23.5637 26.0197 24.1662 27.9359 24.0512 28.7384C23.9972 29.0241 23.8822 29.2948 23.7142 29.532C23.5461 29.7693 23.329 29.9676 23.0775 30.1134C22.8625 30.2472 22.7962 30.2922 22.815 30.3922C22.8412 30.5359 22.94 30.5309 23.1237 30.4997C23.5851 30.3544 23.9916 30.0727 24.2897 29.6919C24.5878 29.311 24.7635 28.8487 24.7937 28.3659C24.8675 26.4909 23.0662 24.3834 19.8762 24.4372C18.9497 24.4107 18.0252 24.5374 17.14 24.8122C17.0957 24.7616 17.0507 24.7116 17.005 24.6622C15.0325 22.5584 11.3875 21.0697 11.5412 18.2409C11.5975 17.2122 11.955 14.5047 18.5412 11.2197C23.9412 8.52845 28.2637 9.2697 29.0112 10.9109C30.0787 13.2559 26.7012 17.6122 21.0937 18.2409C20.474 18.3668 19.8338 18.3514 19.2208 18.1961C18.6077 18.0407 18.0375 17.7493 17.5525 17.3434C17.2575 17.0184 17.2137 17.0047 17.1037 17.0647C16.925 17.1634 17.0387 17.4509 17.1037 17.6209C17.3185 18.0079 17.6083 18.3481 17.9562 18.6216C18.3042 18.895 18.7032 19.0963 19.13 19.2134C21.3347 19.6925 23.6343 19.4651 25.7025 18.5634C29.1037 17.2522 31.7562 13.5959 30.9775 10.5397ZM16.5225 26.3784C16.7708 27.2343 16.7581 28.1448 16.4862 28.9934C16.4571 29.0818 16.425 29.1693 16.39 29.2559C16.355 29.3426 16.3171 29.4259 16.2762 29.5059C16.0659 29.9364 15.7934 30.3335 15.4675 30.6847C14.4512 31.7934 13.03 32.2134 12.4212 31.8597C11.7637 31.4784 12.0925 29.9147 13.2712 28.6684C14.177 27.7728 15.2212 27.0291 16.3637 26.4659L16.5225 26.3784Z" fill="white"/>
</g>
</svg>
