<svg width="40" height="41" viewBox="0 0 40 41" fill="none" xmlns="http://www.w3.org/2000/svg">
<g id="devicon:tailwindcss" clip-path="url(#clip0_82_825)">
<path id="Vector" d="M20.0015 8.55029C14.668 8.55029 11.3358 11.2159 10.0015 16.5494C12.0008 13.8834 14.3349 12.8837 17.0008 13.5503C18.523 13.9297 19.6108 15.0334 20.8155 16.2565C22.7762 18.2462 25.0455 20.5497 30.0015 20.5497C35.3346 20.5497 38.6671 17.8837 40.0015 12.549C38.0018 15.2165 35.668 16.2162 33.0018 15.5497C31.4799 15.17 30.3933 14.0665 29.1871 12.8434C27.2277 10.8537 24.959 8.55029 20.0015 8.55029ZM10.0015 20.5497C4.66834 20.5497 1.33584 23.2156 0.00146484 28.5503C2.00084 25.8828 4.33459 24.8831 7.00084 25.5497C8.52303 25.9294 9.61084 27.0328 10.8155 28.2559C12.7762 30.2456 15.0455 32.549 20.0015 32.549C25.3346 32.549 28.6671 29.8834 30.0015 24.55C28.0018 27.2159 25.668 28.2156 23.0018 27.549C21.4799 27.1697 20.3933 26.0659 19.1871 24.8428C17.2277 22.8531 14.959 20.5497 10.0015 20.5497Z" fill="#38BDF8"/>
</g>
<defs>
<clipPath id="clip0_82_825">
<rect width="40" height="40" fill="white" transform="translate(0 0.549805)"/>
</clipPath>
</defs>
</svg>
