<svg width="40" height="41" viewBox="0 0 40 41" fill="none" xmlns="http://www.w3.org/2000/svg">
<g id="devicon:typescript" clip-path="url(#clip0_82_791)">
<path id="Vector" d="M7.08447 15.2373H38.2313V38.2592H7.08447V15.2373Z" fill="white"/>
<path id="Vector_2" d="M0.46875 20.5215V40.0527H39.5312V0.990234H0.46875V20.5215ZM31.9469 18.959C32.8825 19.1761 33.7328 19.6654 34.3906 20.3652C34.7528 20.7422 35.0676 21.162 35.3281 21.6152C35.3281 21.6652 33.6406 22.8059 32.6125 23.4434C32.575 23.4684 32.425 23.3059 32.2594 23.059C32.0717 22.7351 31.805 22.4641 31.4842 22.2712C31.1635 22.0783 30.799 21.9698 30.425 21.9559C29.2406 21.8746 28.4781 22.4965 28.4844 23.5184C28.4746 23.7728 28.5328 24.0252 28.6531 24.2496C28.9125 24.7902 29.3969 25.1121 30.9156 25.7684C33.7125 26.9715 34.9094 27.7652 35.6531 28.8934C36.4844 30.1434 36.6688 32.1621 36.1063 33.6559C35.4813 35.2809 33.95 36.384 31.7844 36.7496C30.7953 36.8629 29.7959 36.8524 28.8094 36.7184C27.2974 36.4691 25.9046 35.7432 24.8344 34.6465C24.475 34.2496 23.775 33.2152 23.8188 33.1402C23.9328 33.0555 24.0529 32.9793 24.1781 32.9121L25.625 32.1121L26.7469 31.4621L26.9812 31.809C27.3768 32.3748 27.8802 32.8569 28.4625 33.2277C29.7125 33.884 31.4187 33.7934 32.2625 33.034C32.5458 32.7557 32.7225 32.3869 32.7619 31.9918C32.8013 31.5966 32.7009 31.2002 32.4781 30.8715C32.1656 30.4371 31.5406 30.0715 29.7937 29.309C27.7781 28.4402 26.9094 27.9027 26.1156 27.0465C25.6201 26.4814 25.2543 25.8148 25.0437 25.0934C24.8867 24.2691 24.8635 23.425 24.975 22.5934C25.3906 20.6465 26.85 19.2871 28.9812 18.884C29.9683 18.7619 30.968 18.7893 31.9469 18.9652V18.959ZM22.7781 20.5965V22.1965H17.7062V36.6434H14.1094V22.1934H9.025V20.6309C9.00916 20.092 9.02168 19.5527 9.0625 19.0152C9.0875 18.9871 12.1875 18.9871 15.9375 18.9871H22.7594L22.7781 20.5965Z" fill="#007ACC"/>
</g>
<defs>
<clipPath id="clip0_82_791">
<rect width="40" height="40" fill="white" transform="translate(0 0.549805)"/>
</clipPath>
</defs>
</svg>
